<svg width="24" height="24" viewBox="0 0 24 24" fill="none" xmlns="http://www.w3.org/2000/svg">
<path d="M10.95 12.7L9.49995 11.275C9.31662 11.0917 9.08762 11 8.81295 11C8.53828 11 8.30062 11.1 8.09995 11.3C7.91662 11.4834 7.82495 11.7167 7.82495 12C7.82495 12.2834 7.91662 12.5167 8.09995 12.7L10.25 14.85C10.45 15.05 10.6833 15.15 10.95 15.15C11.2166 15.15 11.45 15.05 11.65 14.85L15.9 10.6C16.1 10.4 16.1956 10.1667 16.187 9.90004C16.1783 9.63337 16.0826 9.40004 15.9 9.20004C15.7 9.00004 15.4626 8.89604 15.188 8.88804C14.9133 8.88004 14.6756 8.97571 14.475 9.17504L10.95 12.7ZM8.14995 21.75L6.69995 19.3L3.94995 18.7C3.69995 18.65 3.49995 18.521 3.34995 18.313C3.19995 18.105 3.14162 17.8757 3.17495 17.625L3.44995 14.8L1.57495 12.65C1.40828 12.4667 1.32495 12.25 1.32495 12C1.32495 11.75 1.40828 11.5334 1.57495 11.35L3.44995 9.20004L3.17495 6.37504C3.14162 6.12504 3.19995 5.89571 3.34995 5.68704C3.49995 5.47837 3.69995 5.34937 3.94995 5.30004L6.69995 4.70004L8.14995 2.25004C8.28328 2.03337 8.46662 1.88737 8.69995 1.81204C8.93328 1.73671 9.16662 1.74937 9.39995 1.85004L12 2.95004L14.6 1.85004C14.8333 1.75004 15.0666 1.73737 15.3 1.81204C15.5333 1.88671 15.7166 2.03271 15.85 2.25004L17.3 4.70004L20.0499 5.30004C20.2999 5.35004 20.5 5.47937 20.65 5.68804C20.7999 5.89671 20.8583 6.12571 20.825 6.37504L20.5499 9.20004L22.4249 11.35C22.5916 11.5334 22.6749 11.75 22.6749 12C22.6749 12.25 22.5916 12.4667 22.4249 12.65L20.5499 14.8L20.825 17.625C20.8583 17.875 20.7999 18.1044 20.65 18.313C20.5 18.5217 20.2999 18.6507 20.0499 18.7L17.3 19.3L15.85 21.75C15.7166 21.9667 15.5333 22.1127 15.3 22.188C15.0666 22.2634 14.8333 22.2507 14.6 22.15L12 21.05L9.39995 22.15C9.16662 22.25 8.93328 22.2627 8.69995 22.188C8.46662 22.1134 8.28328 21.9674 8.14995 21.75ZM9.44995 19.95L12 18.85L14.6 19.95L16 17.55L18.75 16.9L18.5 14.1L20.35 12L18.5 9.85004L18.75 7.05004L16 6.45004L14.55 4.05004L12 5.15004L9.39995 4.05004L7.99995 6.45004L5.24995 7.05004L5.49995 9.85004L3.64995 12L5.49995 14.1L5.24995 16.95L7.99995 17.55L9.44995 19.95Z" fill="#FAFAF8"/>
</svg>
