<svg width="16" height="16" viewBox="0 0 16 16" fill="none" xmlns="http://www.w3.org/2000/svg">
<path d="M5.5 13V15M2.5 1H8.5C8.76522 1 9.01957 1.10536 9.20711 1.29289C9.39464 1.48043 9.5 1.73478 9.5 2V14.875C9.5 14.9082 9.48683 14.9399 9.46339 14.9634C9.43995 14.9868 9.40815 15 9.375 15H1.5V2C1.5 1.73478 1.60536 1.48043 1.79289 1.29289C1.98043 1.10536 2.23478 1 2.5 1ZM10 6H13.5C13.7652 6 14.0196 6.10536 14.2071 6.29289C14.3946 6.48043 14.5 6.73478 14.5 7V15H9.5V6.5C9.5 6.36739 9.55268 6.24021 9.64645 6.14645C9.74021 6.05268 9.86739 6 10 6Z" stroke="#FAFAF8" stroke-linecap="round" stroke-linejoin="round"/>
<path d="M3.06496 13.4958C2.96141 13.5093 2.85621 13.4901 2.76414 13.4408C2.67207 13.3915 2.59774 13.3146 2.55159 13.221C2.50544 13.1273 2.48978 13.0215 2.50682 12.9184C2.52385 12.8154 2.57272 12.7203 2.64657 12.6464C2.72042 12.5726 2.81553 12.5237 2.91857 12.5067C3.02161 12.4897 3.12739 12.5053 3.22108 12.5515C3.31476 12.5976 3.39164 12.6719 3.44093 12.764C3.49022 12.8561 3.50944 12.9613 3.4959 13.0648C3.48161 13.1741 3.43161 13.2756 3.35368 13.3536C3.27574 13.4315 3.17425 13.4815 3.06496 13.4958ZM3.06496 10.9958C2.96141 11.0093 2.85621 10.9901 2.76414 10.9408C2.67207 10.8915 2.59774 10.8146 2.55159 10.721C2.50544 10.6273 2.48978 10.5215 2.50682 10.4184C2.52385 10.3154 2.57272 10.2203 2.64657 10.1464C2.72042 10.0726 2.81553 10.0237 2.91857 10.0067C3.02161 9.98966 3.12739 10.0053 3.22108 10.0515C3.31476 10.0976 3.39164 10.1719 3.44093 10.264C3.49022 10.3561 3.50944 10.4613 3.4959 10.5648C3.48161 10.6741 3.43161 10.7756 3.35368 10.8536C3.27574 10.9315 3.17425 10.9815 3.06496 10.9958ZM3.06496 8.49578C2.96141 8.50932 2.85621 8.4901 2.76414 8.44081C2.67207 8.39152 2.59774 8.31464 2.55159 8.22095C2.50544 8.12727 2.48978 8.02148 2.50682 7.91845C2.52385 7.81541 2.57272 7.72029 2.64657 7.64645C2.72042 7.5726 2.81553 7.52373 2.91857 7.5067C3.02161 7.48966 3.12739 7.50532 3.22108 7.55147C3.31476 7.59762 3.39164 7.67195 3.44093 7.76402C3.49022 7.85609 3.50944 7.96129 3.4959 8.06484C3.48161 8.17412 3.43161 8.27562 3.35368 8.35355C3.27574 8.43149 3.17425 8.48149 3.06496 8.49578ZM3.06496 5.99578C2.96141 6.00932 2.85621 5.9901 2.76414 5.94081C2.67207 5.89152 2.59774 5.81464 2.55159 5.72095C2.50544 5.62727 2.48978 5.52148 2.50682 5.41845C2.52385 5.31541 2.57272 5.22029 2.64657 5.14645C2.72042 5.0726 2.81553 5.02373 2.91857 5.0067C3.02161 4.98966 3.12739 5.00532 3.22108 5.05147C3.31476 5.09762 3.39164 5.17195 3.44093 5.26402C3.49022 5.35609 3.50944 5.46129 3.4959 5.56484C3.48161 5.67412 3.43161 5.77562 3.35368 5.85355C3.27574 5.93149 3.17425 5.98149 3.06496 5.99578ZM3.06496 3.49578C2.96141 3.50932 2.85621 3.4901 2.76414 3.44081C2.67207 3.39152 2.59774 3.31464 2.55159 3.22095C2.50544 3.12727 2.48978 3.02148 2.50682 2.91845C2.52385 2.81541 2.57272 2.72029 2.64657 2.64645C2.72042 2.5726 2.81553 2.52373 2.91857 2.5067C3.02161 2.48966 3.12739 2.50532 3.22108 2.55147C3.31476 2.59762 3.39164 2.67195 3.44093 2.76402C3.49022 2.85609 3.50944 2.96129 3.4959 3.06484C3.48161 3.17412 3.43161 3.27562 3.35368 3.35355C3.27574 3.43149 3.17425 3.48149 3.06496 3.49578ZM5.56496 10.9958C5.46141 11.0093 5.35621 10.9901 5.26414 10.9408C5.17207 10.8915 5.09774 10.8146 5.05159 10.721C5.00544 10.6273 4.98978 10.5215 5.00682 10.4184C5.02385 10.3154 5.07272 10.2203 5.14657 10.1464C5.22042 10.0726 5.31553 10.0237 5.41857 10.0067C5.52161 9.98966 5.62739 10.0053 5.72108 10.0515C5.81476 10.0976 5.89164 10.1719 5.94093 10.264C5.99022 10.3561 6.00944 10.4613 5.9959 10.5648C5.98161 10.6741 5.93161 10.7756 5.85368 10.8536C5.77574 10.9315 5.67425 10.9815 5.56496 10.9958ZM5.56496 8.49578C5.46141 8.50932 5.35621 8.4901 5.26414 8.44081C5.17207 8.39152 5.09774 8.31464 5.05159 8.22095C5.00544 8.12727 4.98978 8.02148 5.00682 7.91845C5.02385 7.81541 5.07272 7.72029 5.14657 7.64645C5.22042 7.5726 5.31553 7.52373 5.41857 7.5067C5.52161 7.48966 5.62739 7.50532 5.72108 7.55147C5.81476 7.59762 5.89164 7.67195 5.94093 7.76402C5.99022 7.85609 6.00944 7.96129 5.9959 8.06484C5.98161 8.17412 5.93161 8.27562 5.85368 8.35355C5.77574 8.43149 5.67425 8.48149 5.56496 8.49578ZM5.56496 5.99578C5.46141 6.00932 5.35621 5.9901 5.26414 5.94081C5.17207 5.89152 5.09774 5.81464 5.05159 5.72095C5.00544 5.62727 4.98978 5.52148 5.00682 5.41845C5.02385 5.31541 5.07272 5.22029 5.14657 5.14645C5.22042 5.0726 5.31553 5.02373 5.41857 5.0067C5.52161 4.98966 5.62739 5.00532 5.72108 5.05147C5.81476 5.09762 5.89164 5.17195 5.94093 5.26402C5.99022 5.35609 6.00944 5.46129 5.9959 5.56484C5.98161 5.67412 5.93161 5.77562 5.85368 5.85355C5.77574 5.93149 5.67425 5.98149 5.56496 5.99578ZM5.56496 3.49578C5.46141 3.50932 5.35621 3.4901 5.26414 3.44081C5.17207 3.39152 5.09774 3.31464 5.05159 3.22095C5.00544 3.12727 4.98978 3.02148 5.00682 2.91845C5.02385 2.81541 5.07272 2.72029 5.14657 2.64645C5.22042 2.5726 5.31553 2.52373 5.41857 2.5067C5.52161 2.48966 5.62739 2.50532 5.72108 2.55147C5.81476 2.59762 5.89164 2.67195 5.94093 2.76402C5.99022 2.85609 6.00944 2.96129 5.9959 3.06484C5.98161 3.17412 5.93161 3.27562 5.85368 3.35355C5.77574 3.43149 5.67425 3.48149 5.56496 3.49578ZM8.06496 13.4958C7.96141 13.5093 7.85621 13.4901 7.76414 13.4408C7.67207 13.3915 7.59774 13.3146 7.55159 13.221C7.50544 13.1273 7.48978 13.0215 7.50682 12.9184C7.52385 12.8154 7.57272 12.7203 7.64657 12.6464C7.72042 12.5726 7.81553 12.5237 7.91857 12.5067C8.02161 12.4897 8.12739 12.5053 8.22108 12.5515C8.31476 12.5976 8.39164 12.6719 8.44093 12.764C8.49022 12.8561 8.50944 12.9613 8.4959 13.0648C8.48161 13.1741 8.43161 13.2756 8.35368 13.3536C8.27574 13.4315 8.17424 13.4815 8.06496 13.4958ZM8.06496 10.9958C7.96141 11.0093 7.85621 10.9901 7.76414 10.9408C7.67207 10.8915 7.59774 10.8146 7.55159 10.721C7.50544 10.6273 7.48978 10.5215 7.50682 10.4184C7.52385 10.3154 7.57272 10.2203 7.64657 10.1464C7.72042 10.0726 7.81553 10.0237 7.91857 10.0067C8.02161 9.98966 8.12739 10.0053 8.22108 10.0515C8.31476 10.0976 8.39164 10.1719 8.44093 10.264C8.49022 10.3561 8.50944 10.4613 8.4959 10.5648C8.48161 10.6741 8.43161 10.7756 8.35368 10.8536C8.27574 10.9315 8.17424 10.9815 8.06496 10.9958ZM8.06496 8.49578C7.96141 8.50932 7.85621 8.4901 7.76414 8.44081C7.67207 8.39152 7.59774 8.31464 7.55159 8.22095C7.50544 8.12727 7.48978 8.02148 7.50682 7.91845C7.52385 7.81541 7.57272 7.72029 7.64657 7.64645C7.72042 7.5726 7.81553 7.52373 7.91857 7.5067C8.02161 7.48966 8.12739 7.50532 8.22108 7.55147C8.31476 7.59762 8.39164 7.67195 8.44093 7.76402C8.49022 7.85609 8.50944 7.96129 8.4959 8.06484C8.48161 8.17412 8.43161 8.27562 8.35368 8.35355C8.27574 8.43149 8.17424 8.48149 8.06496 8.49578Z" fill="#FAFAF8"/>
<path d="M8.35422 5.85403C8.54887 5.65938 8.54808 5.34299 8.35245 5.14737C8.15682 4.95174 7.84044 4.95095 7.64578 5.1456C7.45113 5.34025 7.45192 5.65663 7.64755 5.85226C7.84318 6.04789 8.15956 6.04868 8.35422 5.85403Z" fill="#FAFAF8"/>
<path d="M8.06496 3.49578C7.96141 3.50932 7.85621 3.4901 7.76414 3.44081C7.67207 3.39152 7.59774 3.31464 7.55159 3.22095C7.50544 3.12727 7.48978 3.02148 7.50682 2.91845C7.52385 2.81541 7.57272 2.72029 7.64657 2.64645C7.72042 2.5726 7.81553 2.52373 7.91857 2.5067C8.02161 2.48966 8.12739 2.50532 8.22108 2.55147C8.31476 2.59762 8.39164 2.67195 8.44093 2.76402C8.49022 2.85609 8.50944 2.96129 8.4959 3.06484C8.48161 3.17412 8.43161 3.27562 8.35368 3.35355C8.27574 3.43149 8.17424 3.48149 8.06496 3.49578ZM12.5 12.4998C12.4011 12.4998 12.3044 12.5292 12.2222 12.5841C12.14 12.639 12.0759 12.7171 12.038 12.8085C12.0002 12.8999 11.9903 13.0004 12.0096 13.0974C12.0289 13.1944 12.0765 13.2835 12.1464 13.3534C12.2163 13.4233 12.3054 13.4709 12.4024 13.4902C12.4994 13.5095 12.5999 13.4996 12.6913 13.4618C12.7827 13.4239 12.8608 13.3599 12.9157 13.2776C12.9706 13.1954 13 13.0987 13 12.9998C13 12.8672 12.9473 12.7401 12.8535 12.6463C12.7597 12.5525 12.6326 12.4998 12.5 12.4998ZM12.5 9.99984C12.4011 9.99984 12.3044 10.0292 12.2222 10.0841C12.14 10.139 12.0759 10.2171 12.038 10.3085C12.0002 10.3999 11.9903 10.5004 12.0096 10.5974C12.0289 10.6944 12.0765 10.7835 12.1464 10.8534C12.2163 10.9233 12.3054 10.9709 12.4024 10.9902C12.4994 11.0095 12.5999 10.9996 12.6913 10.9618C12.7827 10.9239 12.8608 10.8599 12.9157 10.7776C12.9706 10.6954 13 10.5987 13 10.4998C13 10.3672 12.9473 10.2401 12.8535 10.1463C12.7597 10.0525 12.6326 9.99984 12.5 9.99984ZM12.5 7.49984C12.4011 7.49984 12.3044 7.52917 12.2222 7.58411C12.14 7.63905 12.0759 7.71714 12.038 7.8085C12.0002 7.89986 11.9903 8.0004 12.0096 8.09739C12.0289 8.19438 12.0765 8.28347 12.1464 8.35339C12.2163 8.42332 12.3054 8.47094 12.4024 8.49023C12.4994 8.50953 12.5999 8.49962 12.6913 8.46178C12.7827 8.42394 12.8608 8.35985 12.9157 8.27763C12.9706 8.1954 13 8.09873 13 7.99984C13 7.86723 12.9473 7.74006 12.8535 7.64629C12.7597 7.55252 12.6326 7.49984 12.5 7.49984ZM10.5 12.4998C10.4011 12.4998 10.3044 12.5292 10.2222 12.5841C10.14 12.639 10.0759 12.7171 10.038 12.8085C10.0002 12.8999 9.99028 13.0004 10.0096 13.0974C10.0289 13.1944 10.0765 13.2835 10.1464 13.3534C10.2163 13.4233 10.3054 13.4709 10.4024 13.4902C10.4994 13.5095 10.5999 13.4996 10.6913 13.4618C10.7827 13.4239 10.8608 13.3599 10.9157 13.2776C10.9706 13.1954 11 13.0987 11 12.9998C11 12.8672 10.9473 12.7401 10.8535 12.6463C10.7597 12.5525 10.6326 12.4998 10.5 12.4998ZM10.5 9.99984C10.4011 9.99984 10.3044 10.0292 10.2222 10.0841C10.14 10.139 10.0759 10.2171 10.038 10.3085C10.0002 10.3999 9.99028 10.5004 10.0096 10.5974C10.0289 10.6944 10.0765 10.7835 10.1464 10.8534C10.2163 10.9233 10.3054 10.9709 10.4024 10.9902C10.4994 11.0095 10.5999 10.9996 10.6913 10.9618C10.7827 10.9239 10.8608 10.8599 10.9157 10.7776C10.9706 10.6954 11 10.5987 11 10.4998C11 10.3672 10.9473 10.2401 10.8535 10.1463C10.7597 10.0525 10.6326 9.99984 10.5 9.99984ZM10.5 7.49984C10.4011 7.49984 10.3044 7.52917 10.2222 7.58411C10.14 7.63905 10.0759 7.71714 10.038 7.8085C10.0002 7.89986 9.99028 8.0004 10.0096 8.09739C10.0289 8.19438 10.0765 8.28347 10.1464 8.35339C10.2163 8.42332 10.3054 8.47094 10.4024 8.49023C10.4994 8.50953 10.5999 8.49962 10.6913 8.46178C10.7827 8.42394 10.8608 8.35985 10.9157 8.27763C10.9706 8.1954 11 8.09873 11 7.99984C11 7.86723 10.9473 7.74006 10.8535 7.64629C10.7597 7.55252 10.6326 7.49984 10.5 7.49984Z" fill="#FAFAF8"/>
</svg>
