<svg width="24" height="24" viewBox="0 0 24 24" fill="none" xmlns="http://www.w3.org/2000/svg">
<path d="M11.7021 19.9415C11.8327 19.9415 11.9667 19.9121 12.1041 19.8535C12.2414 19.7948 12.3524 19.7231 12.4371 19.6385L20.2331 11.8415C20.4844 11.5901 20.6784 11.3335 20.8151 11.0715C20.9511 10.8081 21.0191 10.5195 21.0191 10.2055C21.0191 9.88747 20.9511 9.5788 20.8151 9.27947C20.6784 8.97947 20.4844 8.70614 20.2331 8.45947L16.4831 4.70947C16.2357 4.45814 15.9814 4.2738 15.7201 4.15647C15.4594 4.03914 15.1701 3.98047 14.8521 3.98047C14.5381 3.98047 14.2464 4.03914 13.9771 4.15647C13.7077 4.2738 13.4541 4.4578 13.2161 4.70847L12.3441 5.58047L14.1941 7.43547C14.3927 7.6308 14.5411 7.8528 14.6391 8.10147C14.7364 8.35014 14.7851 8.60247 14.7851 8.85847C14.7851 9.37914 14.6147 9.8098 14.2741 10.1505C13.9334 10.4911 13.5031 10.6611 12.9831 10.6605C12.7264 10.6605 12.4761 10.6215 12.2321 10.5435C11.9881 10.4655 11.7684 10.3288 11.5731 10.1335L9.66006 8.22747L5.34206 12.5445C5.24139 12.6458 5.16572 12.7608 5.11506 12.8895C5.06439 13.0181 5.03906 13.1481 5.03906 13.2795C5.03906 13.5155 5.11472 13.7098 5.26606 13.8625C5.41672 14.0158 5.61006 14.0925 5.84606 14.0925C5.97673 14.0925 6.11073 14.0631 6.24806 14.0045C6.38539 13.9451 6.49639 13.8731 6.58106 13.7885L9.75006 10.6195L10.4581 11.3275L7.29406 14.4975C7.19273 14.5981 7.11673 14.7128 7.06606 14.8415C7.01606 14.9708 6.99106 15.1008 6.99106 15.2315C6.99106 15.4548 7.06973 15.6451 7.22706 15.8025C7.38439 15.9598 7.57473 16.0388 7.79806 16.0395C7.92873 16.0395 8.06273 16.0098 8.20006 15.9505C8.33739 15.8911 8.44839 15.8195 8.53306 15.7355L11.9331 12.3415L12.6411 13.0485L9.24606 16.4485C9.15739 16.5331 9.08473 16.6441 9.02806 16.7815C8.97073 16.9188 8.94206 17.0528 8.94206 17.1835C8.94206 17.4061 9.02106 17.5961 9.17906 17.7535C9.33639 17.9121 9.52673 17.9915 9.75006 17.9915C9.88073 17.9915 10.0107 17.9661 10.1401 17.9155C10.2694 17.8648 10.3841 17.7888 10.4841 17.6875L13.8841 14.2925L14.5921 15.0005L11.1921 18.4005C11.0914 18.5018 11.0157 18.6235 10.9651 18.7655C10.9144 18.9075 10.8891 19.0371 10.8891 19.1545C10.8891 19.3905 10.9721 19.5808 11.1381 19.7255C11.3041 19.8701 11.4921 19.9425 11.7021 19.9425M11.6961 20.9425C11.1821 20.9425 10.7421 20.7545 10.3761 20.3785C10.0101 20.0018 9.84939 19.5371 9.89406 18.9845C9.32739 18.9911 8.85573 18.8221 8.47906 18.4775C8.10239 18.1321 7.92339 17.6508 7.94206 17.0335C7.32473 17.0401 6.83806 16.8635 6.48206 16.5035C6.12606 16.1435 5.96406 15.6695 5.99606 15.0815C5.44006 15.0881 4.97473 14.9315 4.60006 14.6115C4.22606 14.2928 4.03906 13.8488 4.03906 13.2795C4.03906 13.0228 4.08873 12.7661 4.18806 12.5095C4.28739 12.2521 4.43406 12.0261 4.62806 11.8315L9.66006 6.80547L12.2421 9.38747C12.3267 9.47613 12.4314 9.54914 12.5561 9.60647C12.6807 9.6638 12.8211 9.69214 12.9771 9.69147C13.1911 9.69147 13.3801 9.6168 13.5441 9.46747C13.7081 9.31814 13.7904 9.12347 13.7911 8.88347C13.7911 8.72747 13.7624 8.58747 13.7051 8.46347C13.6477 8.3388 13.5751 8.23414 13.4871 8.14947L10.0471 4.70947C9.79906 4.45814 9.54139 4.2738 9.27406 4.15647C9.00673 4.03914 8.71406 3.98047 8.39606 3.98047C8.08206 3.98047 7.79673 4.03914 7.54006 4.15647C7.28406 4.2738 7.03039 4.45814 6.77906 4.70947L3.73506 7.75947C3.52039 7.9728 3.34706 8.2278 3.21506 8.52447C3.08306 8.82047 3.01306 9.12614 3.00506 9.44147C2.99839 9.66747 3.01772 9.88447 3.06306 10.0925C3.10839 10.3005 3.18173 10.4965 3.28306 10.6805L2.52506 11.4385C2.35706 11.1705 2.22573 10.8618 2.13106 10.5125C2.03639 10.1631 1.99273 9.80647 2.00006 9.44247C2.00806 8.9878 2.09906 8.5528 2.27306 8.13747C2.44706 7.72214 2.69639 7.3518 3.02106 7.02647L6.04606 4.00147C6.39473 3.65614 6.76373 3.39947 7.15306 3.23147C7.54239 3.06414 7.96339 2.98047 8.41606 2.98047C8.86873 2.98047 9.28606 3.06447 9.66806 3.23247C10.0507 3.3998 10.4147 3.65614 10.7601 4.00147L11.6301 4.87247L12.5021 4.00147C12.8507 3.65614 13.2164 3.39947 13.5991 3.23147C13.9817 3.06414 14.3994 2.98047 14.8521 2.98047C15.3047 2.98047 15.7257 3.06447 16.1151 3.23247C16.5037 3.3998 16.8704 3.65614 17.2151 4.00147L20.9411 7.72647C21.2857 8.07114 21.5517 8.45814 21.7391 8.88747C21.9264 9.3168 22.0197 9.7578 22.0191 10.2105C22.0191 10.6638 21.9257 11.0815 21.7391 11.4635C21.5524 11.8455 21.2864 12.2095 20.9411 12.5555L13.1441 20.3455C12.9367 20.5535 12.7107 20.7048 12.4661 20.7995C12.2221 20.8941 11.9654 20.9415 11.6961 20.9415" fill="#FAFAF8"/>
</svg>
