<svg width="31" height="31" viewBox="0 0 31 31" fill="none" xmlns="http://www.w3.org/2000/svg">
<path d="M26.9319 9.61903L21.802 12.184M21.802 12.184L21.1608 12.5046L15.3897 15.3902M21.802 12.184V16.6726M21.802 12.184L9.61854 5.77161M15.3897 15.3902L3.84741 9.61903M15.3897 15.3902V27.5737M19.9784 4.33781L22.5433 5.6844C25.3019 7.13232 26.6818 7.85563 27.4488 9.15734C28.2144 10.4578 28.2144 12.0775 28.2144 15.3158V15.4658C28.2144 18.7028 28.2144 20.3225 27.4488 21.623C26.6818 22.9247 25.3019 23.6493 22.5433 25.0972L19.9784 26.4425C17.7263 27.6237 16.6003 28.2149 15.3897 28.2149C14.179 28.2149 13.053 27.6249 10.801 26.4425L8.23604 25.0959C5.47744 23.648 4.0975 22.9247 3.33058 21.623C2.56494 20.3225 2.56494 18.7028 2.56494 15.4671V15.3171C2.56494 12.0788 2.56494 10.459 3.33058 9.15862C4.0975 7.85691 5.47744 7.13232 8.23604 5.68569L10.801 4.33909C13.053 3.15665 14.179 2.56543 15.3897 2.56543C16.6003 2.56543 17.7263 3.15537 19.9784 4.33781Z" stroke="#FAFAF8" stroke-width="1.5" stroke-linecap="round"/>
</svg>
