<svg width="31" height="31" viewBox="0 0 31 31" fill="none" xmlns="http://www.w3.org/2000/svg">
<g clip-path="url(#clip0_171_1064)">
<path d="M14.4278 8.65681V10.5805H17.3134V8.65681H14.4278ZM14.4278 2.88568V4.80939H17.3134V2.88568H14.4278ZM22.1227 2.88568H19.2371V4.80939H22.1227V8.65681H19.2371V10.5805H22.1227C23.1807 10.5805 24.0464 9.71485 24.0464 8.65681V4.80939C24.0464 3.75135 23.1807 2.88568 22.1227 2.88568ZM12.5041 4.80939V2.88568H9.61855C8.56051 2.88568 7.69484 3.75135 7.69484 4.80939V8.65681C7.69484 9.71485 8.56051 10.5805 9.61855 10.5805H12.5041V8.65681H9.61855V4.80939H12.5041ZM23.0845 25.0083C22.0265 25.0083 21.1608 25.874 21.1608 26.932C21.1608 27.9901 22.0265 28.8558 23.0845 28.8558C24.1426 28.8558 25.0082 27.9901 25.0082 26.932C25.0082 25.874 24.1426 25.0083 23.0845 25.0083ZM9.61855 25.0083C8.56051 25.0083 7.69484 25.874 7.69484 26.932C7.69484 27.9901 8.56051 28.8558 9.61855 28.8558C10.6766 28.8558 11.5423 27.9901 11.5423 26.932C11.5423 25.874 10.6766 25.0083 9.61855 25.0083ZM28.0862 6.7331L25.8739 16.544C25.7777 17.0249 25.393 17.3135 24.912 17.3135H7.69484L8.46432 21.1609H25.0082V23.0846H7.69484C7.21391 23.0846 6.82917 22.7961 6.73298 22.3151L3.07793 3.84754H0V1.92383H3.84742C4.32835 1.92383 4.71309 2.21238 4.80927 2.69331L7.3101 15.3898H24.2387L26.1624 6.7331H28.0862Z" fill="#FAFAF8"/>
</g>
<defs>
<clipPath id="clip0_171_1064">
<rect width="30.7794" height="30.7794" fill="white"/>
</clipPath>
</defs>
</svg>
