<svg width="30" height="30" viewBox="0 0 30 30" fill="none" xmlns="http://www.w3.org/2000/svg">
<path d="M2.5 3.75V2.5C2.16848 2.5 1.85054 2.6317 1.61612 2.86612C1.3817 3.10054 1.25 3.41848 1.25 3.75H2.5ZM16.25 3.75H17.5C17.5 3.41848 17.3683 3.10054 17.1339 2.86612C16.8995 2.6317 16.5815 2.5 16.25 2.5V3.75ZM16.25 11.25V10C15.9185 10 15.6005 10.1317 15.3661 10.3661C15.1317 10.6005 15 10.9185 15 11.25H16.25ZM2.5 5H16.25V2.5H2.5V5ZM15 3.75V23.75H17.5V3.75H15ZM3.75 21.25V3.75H1.25V21.25H3.75ZM16.25 12.5H22.5V10H16.25V12.5ZM26.25 16.25V21.25H28.75V16.25H26.25ZM17.5 23.75V11.25H15V23.75H17.5ZM23.3838 24.6338C23.1493 24.8681 22.8315 24.9997 22.5 24.9997C22.1685 24.9997 21.8507 24.8681 21.6162 24.6338L19.8487 26.4013C20.552 27.1043 21.5056 27.4992 22.5 27.4992C23.4944 27.4992 24.448 27.1043 25.1513 26.4013L23.3838 24.6338ZM21.6162 22.8662C21.8507 22.6319 22.1685 22.5003 22.5 22.5003C22.8315 22.5003 23.1493 22.6319 23.3838 22.8662L25.1513 21.0987C24.448 20.3957 23.4944 20.0008 22.5 20.0008C21.5056 20.0008 20.552 20.3957 19.8487 21.0987L21.6162 22.8662ZM8.38375 24.6338C8.14934 24.8681 7.83146 24.9997 7.5 24.9997C7.16854 24.9997 6.85066 24.8681 6.61625 24.6338L4.84875 26.4013C5.55198 27.1043 6.50563 27.4992 7.5 27.4992C8.49437 27.4992 9.44802 27.1043 10.1513 26.4013L8.38375 24.6338ZM6.61625 22.8662C6.85066 22.6319 7.16854 22.5003 7.5 22.5003C7.83146 22.5003 8.14934 22.6319 8.38375 22.8662L10.1513 21.0987C9.44802 20.3957 8.49437 20.0008 7.5 20.0008C6.50563 20.0008 5.55198 20.3957 4.84875 21.0987L6.61625 22.8662ZM23.3838 22.8662C23.6288 23.11 23.75 23.4287 23.75 23.75H26.25C26.25 22.7925 25.8838 21.83 25.1513 21.0987L23.3838 22.8662ZM23.75 23.75C23.7499 24.0815 23.6182 24.3994 23.3838 24.6338L25.1513 26.4013C25.8546 25.6982 26.2498 24.7445 26.25 23.75H23.75ZM20 22.5H16.25V25H20V22.5ZM21.6162 24.6338C21.3818 24.3994 21.2501 24.0815 21.25 23.75H18.75C18.75 24.7075 19.1162 25.67 19.8487 26.4013L21.6162 24.6338ZM21.25 23.75C21.2501 23.4185 21.3818 23.1006 21.6162 22.8662L19.8487 21.0987C19.1454 21.8018 18.7502 22.7555 18.75 23.75H21.25ZM6.61625 24.6338C6.38181 24.3994 6.25007 24.0815 6.25 23.75H3.75C3.75 24.7075 4.11625 25.67 4.84875 26.4013L6.61625 24.6338ZM6.25 23.75C6.25007 23.4185 6.38181 23.1006 6.61625 22.8662L4.84875 21.0987C4.14544 21.8018 3.75021 22.7555 3.75 23.75H6.25ZM16.25 22.5H10V25H16.25V22.5ZM8.38375 22.8662C8.62875 23.11 8.75 23.4287 8.75 23.75H11.25C11.25 22.7925 10.8837 21.83 10.1513 21.0987L8.38375 22.8662ZM8.75 23.75C8.74993 24.0815 8.61819 24.3994 8.38375 24.6338L10.1513 26.4013C10.8546 25.6982 11.2498 24.7445 11.25 23.75H8.75ZM26.25 21.25C26.25 21.5815 26.1183 21.8995 25.8839 22.1339C25.6495 22.3683 25.3315 22.5 25 22.5V25C25.9946 25 26.9484 24.6049 27.6517 23.9017C28.3549 23.1984 28.75 22.2446 28.75 21.25H26.25ZM22.5 12.5C23.4946 12.5 24.4484 12.8951 25.1517 13.5983C25.8549 14.3016 26.25 15.2554 26.25 16.25H28.75C28.75 15.4292 28.5883 14.6165 28.2742 13.8582C27.9602 13.0999 27.4998 12.4109 26.9194 11.8306C26.3391 11.2502 25.6501 10.7898 24.8918 10.4758C24.1335 10.1617 23.3208 10 22.5 10V12.5ZM1.25 21.25C1.25 22.2446 1.64509 23.1984 2.34835 23.9017C3.05161 24.6049 4.00544 25 5 25V22.5C4.66848 22.5 4.35054 22.3683 4.11612 22.1339C3.8817 21.8995 3.75 21.5815 3.75 21.25H1.25Z" fill="#FAFAF8"/>
<path d="M2.5 10H6.25M2.5 15H8.75" stroke="#FAFAF8" stroke-width="2" stroke-linecap="round" stroke-linejoin="round"/>
</svg>
