<svg width="28" height="28" viewBox="0 0 28 28" fill="none" xmlns="http://www.w3.org/2000/svg">
<path d="M14 25.6673C13.0457 25.6673 12.1333 25.2823 10.3098 24.5147C5.77033 22.6025 3.5 21.647 3.5 20.0382V8.79965M14 25.6673C14.9543 25.6673 15.8667 25.2823 17.6902 24.5147C22.2297 22.6025 24.5 21.647 24.5 20.0382V8.79965M14 25.6673V14.0357M3.5 8.79965C3.5 9.51482 4.43567 9.96632 6.30583 10.8682L9.7125 12.5132C11.8172 13.5282 12.8683 14.0357 14 14.0357M3.5 8.79965C3.5 8.08565 4.43567 7.63415 6.30583 6.73232L8.16667 5.83398M24.5 8.79965C24.5 9.51482 23.5643 9.96632 21.6942 10.8682L18.2875 12.5132C16.1828 13.5282 15.1317 14.0357 14 14.0357M24.5 8.79965C24.5 8.08565 23.5643 7.63415 21.6942 6.73232L19.8333 5.83398M7 15.1977L9.33333 16.3608" stroke="#841B1B" stroke-width="2" stroke-linecap="round" stroke-linejoin="round"/>
<path d="M11.6667 2.33398L14.0001 4.66732M14.0001 4.66732L16.3334 7.00065M14.0001 4.66732L11.6667 7.00065M14.0001 4.66732L16.3334 2.33398" stroke="#841B1B" stroke-width="2" stroke-linecap="round"/>
</svg>
