<svg width="28" height="28" viewBox="0 0 28 28" fill="none" xmlns="http://www.w3.org/2000/svg">
<path d="M24.4999 8.75065L19.8333 11.084M19.8333 11.084L19.2499 11.3757L13.9999 14.0007M19.8333 11.084V15.1673M19.8333 11.084L8.74992 5.25065M13.9999 14.0007L3.49992 8.75065M13.9999 14.0007V25.084M18.1743 3.94632L20.5076 5.17132C23.0171 6.48848 24.2724 7.14648 24.9701 8.33065C25.6666 9.51365 25.6666 10.9872 25.6666 13.933V14.0695C25.6666 17.0142 25.6666 18.4877 24.9701 19.6707C24.2724 20.8548 23.0171 21.514 20.5076 22.8312L18.1743 24.055C16.1256 25.1295 15.1013 25.6673 13.9999 25.6673C12.8986 25.6673 11.8743 25.1307 9.82559 24.055L7.49225 22.83C4.98275 21.5128 3.72742 20.8548 3.02975 19.6707C2.33325 18.4877 2.33325 17.0142 2.33325 14.0707V13.9342C2.33325 10.9883 2.33325 9.51482 3.02975 8.33182C3.72742 7.14765 4.98275 6.48848 7.49225 5.17248L9.82559 3.94748C11.8743 2.87182 12.8986 2.33398 13.9999 2.33398C15.1013 2.33398 16.1256 2.87065 18.1743 3.94632Z" stroke="#37A558" stroke-width="1.5" stroke-linecap="round"/>
</svg>
