<svg width="24" height="24" viewBox="0 0 24 24" fill="none" xmlns="http://www.w3.org/2000/svg">
<path d="M1.15505 24C0.940696 24 0.745829 23.9391 0.570448 23.8173C0.395067 23.6955 0.25866 23.5342 0.161227 23.3333C0.063793 23.1324 0.0103994 22.9155 0.00104575 22.6826C-0.00830788 22.4497 0.0450857 22.2222 0.161227 22L10.9764 0.666666C11.0933 0.444444 11.2445 0.277777 11.43 0.166666C11.6155 0.0555555 11.8053 0 11.9994 0C12.1935 0 12.3837 0.0555555 12.57 0.166666C12.7563 0.277777 12.9071 0.444444 13.0225 0.666666L23.8376 22C23.9545 22.2222 24.0083 22.4502 23.999 22.684C23.9896 22.9177 23.9358 23.1342 23.8376 23.3333C23.7394 23.5324 23.603 23.6937 23.4284 23.8173C23.2538 23.9409 23.0589 24.0017 22.8438 24H1.15505ZM3.17193 21.3333H20.8269L11.9994 3.99999L3.17193 21.3333ZM12.8331 19.6173C13.0568 19.3613 13.1686 19.0444 13.1686 18.6666C13.1686 18.2889 13.0564 17.9724 12.8319 17.7173C12.6074 17.4622 12.3299 17.3342 11.9994 17.3333C11.6689 17.3324 11.3914 17.4604 11.1669 17.7173C10.9425 17.9742 10.8302 18.2906 10.8302 18.6666C10.8302 19.0426 10.9425 19.3595 11.1669 19.6173C11.3914 19.8751 11.6689 20.0026 11.9994 20C12.3299 19.9973 12.6078 19.8706 12.8331 19.6173ZM12.8331 15.616C13.0568 15.3609 13.1686 15.0444 13.1686 14.6666V10.6666C13.1686 10.2889 13.0564 9.97243 12.8319 9.71732C12.6074 9.46221 12.3299 9.33421 11.9994 9.33332C11.6689 9.33243 11.3914 9.46043 11.1669 9.71732C10.9425 9.97421 10.8302 10.2907 10.8302 10.6666V14.6666C10.8302 15.0444 10.9425 15.3613 11.1669 15.6173C11.3914 15.8733 11.6689 16.0009 11.9994 16C12.3299 15.9991 12.6078 15.8711 12.8331 15.616Z" fill="#AA8F36"/>
</svg>
