<svg width="37" height="34" viewBox="0 0 37 34" fill="none" xmlns="http://www.w3.org/2000/svg">
<path d="M1.66667 1.66667V0C1.22464 0 0.800716 0.175595 0.488155 0.488155C0.175595 0.800716 0 1.22464 0 1.66667H1.66667ZM20 1.66667H21.6667C21.6667 1.22464 21.4911 0.800716 21.1785 0.488155C20.866 0.175595 20.442 0 20 0V1.66667ZM20 11.6667V10C19.558 10 19.1341 10.1756 18.8215 10.4882C18.5089 10.8007 18.3333 11.2246 18.3333 11.6667H20ZM1.66667 3.33333H20V0H1.66667V3.33333ZM18.3333 1.66667V28.3333H21.6667V1.66667H18.3333ZM3.33333 25V1.66667H0V25H3.33333ZM20 13.3333H28.3333V10H20V13.3333ZM33.3333 18.3333V25H36.6667V18.3333H33.3333ZM21.6667 28.3333V11.6667H18.3333V28.3333H21.6667ZM29.5117 29.5117C29.1991 29.8241 28.7753 29.9996 28.3333 29.9996C27.8914 29.9996 27.4675 29.8241 27.155 29.5117L24.7983 31.8683C25.736 32.8057 27.0075 33.3323 28.3333 33.3323C29.6592 33.3323 30.9307 32.8057 31.8683 31.8683L29.5117 29.5117ZM27.155 27.155C27.4675 26.8425 27.8914 26.667 28.3333 26.667C28.7753 26.667 29.1991 26.8425 29.5117 27.155L31.8683 24.7983C30.9307 23.861 29.6592 23.3344 28.3333 23.3344C27.0075 23.3344 25.736 23.861 24.7983 24.7983L27.155 27.155ZM9.51167 29.5117C9.19912 29.8241 8.77527 29.9996 8.33333 29.9996C7.89139 29.9996 7.46755 29.8241 7.155 29.5117L4.79833 31.8683C5.73597 32.8057 7.00751 33.3323 8.33333 33.3323C9.65915 33.3323 10.9307 32.8057 11.8683 31.8683L9.51167 29.5117ZM7.155 27.155C7.46755 26.8425 7.89139 26.667 8.33333 26.667C8.77527 26.667 9.19912 26.8425 9.51167 27.155L11.8683 24.7983C10.9307 23.861 9.65915 23.3344 8.33333 23.3344C7.00751 23.3344 5.73597 23.861 4.79833 24.7983L7.155 27.155ZM29.5117 27.155C29.8383 27.48 30 27.905 30 28.3333H33.3333C33.3333 27.0567 32.845 25.7733 31.8683 24.7983L29.5117 27.155ZM30 28.3333C29.9999 28.7753 29.8243 29.1992 29.5117 29.5117L31.8683 31.8683C32.8061 30.9309 33.3331 29.6593 33.3333 28.3333H30ZM25 26.6667H20V30H25V26.6667ZM27.155 29.5117C26.8424 29.1992 26.6668 28.7753 26.6667 28.3333H23.3333C23.3333 29.61 23.8217 30.8933 24.7983 31.8683L27.155 29.5117ZM26.6667 28.3333C26.6668 27.8913 26.8424 27.4675 27.155 27.155L24.7983 24.7983C23.8606 25.7358 23.3336 27.0074 23.3333 28.3333H26.6667ZM7.155 29.5117C6.84242 29.1992 6.66676 28.7753 6.66667 28.3333H3.33333C3.33333 29.61 3.82167 30.8933 4.79833 31.8683L7.155 29.5117ZM6.66667 28.3333C6.66676 27.8913 6.84242 27.4675 7.155 27.155L4.79833 24.7983C3.86059 25.7358 3.33362 27.0074 3.33333 28.3333H6.66667ZM20 26.6667H11.6667V30H20V26.6667ZM9.51167 27.155C9.83833 27.48 10 27.905 10 28.3333H13.3333C13.3333 27.0567 12.845 25.7733 11.8683 24.7983L9.51167 27.155ZM10 28.3333C9.99991 28.7753 9.82425 29.1992 9.51167 29.5117L11.8683 31.8683C12.8061 30.9309 13.3331 29.6593 13.3333 28.3333H10ZM33.3333 25C33.3333 25.442 33.1577 25.866 32.8452 26.1785C32.5326 26.4911 32.1087 26.6667 31.6667 26.6667V30C32.9928 30 34.2645 29.4732 35.2022 28.5355C36.1399 27.5979 36.6667 26.3261 36.6667 25H33.3333ZM28.3333 13.3333C29.6594 13.3333 30.9312 13.8601 31.8689 14.7978C32.8066 15.7355 33.3333 17.0072 33.3333 18.3333H36.6667C36.6667 17.239 36.4511 16.1554 36.0323 15.1443C35.6135 14.1333 34.9997 13.2146 34.2259 12.4408C33.4521 11.667 32.5334 11.0531 31.5224 10.6343C30.5113 10.2155 29.4277 10 28.3333 10V13.3333ZM0 25C0 26.3261 0.526784 27.5979 1.46447 28.5355C2.40215 29.4732 3.67392 30 5 30V26.6667C4.55797 26.6667 4.13405 26.4911 3.82149 26.1785C3.50893 25.866 3.33333 25.442 3.33333 25H0Z" fill="#065F46"/>
<path d="M1.66663 10H6.66663M1.66663 16.6667H9.99996" stroke="#065F46" stroke-width="2" stroke-linecap="round" stroke-linejoin="round"/>
</svg>
