<svg width="150" height="49" viewBox="0 0 150 49" fill="none" xmlns="http://www.w3.org/2000/svg">
<path d="M11.111 36.384C9.61767 36.384 8.231 36.1067 6.951 35.552C5.671 34.976 4.583 34.1973 3.687 33.216C2.791 32.2347 2.12966 31.104 1.703 29.824L4.903 28.48C5.479 29.952 6.32166 31.0827 7.431 31.872C8.54033 32.6613 9.82033 33.056 11.271 33.056C12.1243 33.056 12.871 32.928 13.511 32.672C14.151 32.3947 14.6417 32.0107 14.983 31.52C15.3457 31.0293 15.527 30.464 15.527 29.824C15.527 28.9493 15.2817 28.256 14.791 27.744C14.3003 27.232 13.575 26.8267 12.615 26.528L8.135 25.12C6.343 24.5653 4.97767 23.7227 4.039 22.592C3.10033 21.44 2.631 20.096 2.631 18.56C2.631 17.216 2.96166 16.0427 3.623 15.04C4.28433 14.016 5.191 13.216 6.343 12.64C7.51633 12.064 8.84967 11.776 10.343 11.776C11.7723 11.776 13.0737 12.032 14.247 12.544C15.4203 13.0347 16.423 13.7173 17.255 14.592C18.1083 15.4667 18.727 16.48 19.111 17.632L15.975 19.008C15.5057 17.7493 14.7697 16.7787 13.767 16.096C12.7857 15.4133 11.6443 15.072 10.343 15.072C9.55367 15.072 8.86033 15.2107 8.263 15.488C7.66567 15.744 7.19633 16.128 6.855 16.64C6.535 17.1307 6.375 17.7067 6.375 18.368C6.375 19.136 6.62033 19.8187 7.111 20.416C7.60167 21.0133 8.34833 21.4613 9.351 21.76L13.511 23.072C15.4097 23.648 16.839 24.48 17.799 25.568C18.759 26.6347 19.239 27.968 19.239 29.568C19.239 30.8907 18.887 32.064 18.183 33.088C17.5003 34.112 16.551 34.9227 15.335 35.52C14.119 36.096 12.711 36.384 11.111 36.384ZM32.1817 36.384C30.8804 36.384 29.7391 36.096 28.7577 35.52C27.7764 34.9227 27.0084 34.1013 26.4537 33.056C25.9204 31.9893 25.6537 30.7627 25.6537 29.376V18.688H29.2697V29.056C29.2697 29.8453 29.4297 30.5387 29.7497 31.136C30.0697 31.7333 30.5177 32.2027 31.0937 32.544C31.6697 32.864 32.3311 33.024 33.0777 33.024C33.8457 33.024 34.5177 32.8533 35.0938 32.512C35.6697 32.1707 36.1177 31.6907 36.4377 31.072C36.7791 30.4533 36.9497 29.728 36.9497 28.896V18.688H40.5338V36H37.1097V32.608L37.4937 33.056C37.0884 34.1227 36.4164 34.944 35.4777 35.52C34.5391 36.096 33.4404 36.384 32.1817 36.384ZM47.6358 42.4V18.688H51.0918V22.272L50.6758 21.44C51.3158 20.4587 52.1691 19.6907 53.2358 19.136C54.3024 18.5813 55.5184 18.304 56.8838 18.304C58.5264 18.304 59.9984 18.6987 61.2998 19.488C62.6224 20.2773 63.6571 21.3547 64.4038 22.72C65.1718 24.0853 65.5558 25.6213 65.5558 27.328C65.5558 29.0347 65.1718 30.5707 64.4038 31.936C63.6571 33.3013 62.6331 34.3893 61.3318 35.2C60.0304 35.9893 58.5478 36.384 56.8838 36.384C55.5398 36.384 54.3131 36.1067 53.2038 35.552C52.1158 34.9973 51.2731 34.1973 50.6758 33.152L51.2518 32.48V42.4H47.6358ZM56.5318 33.024C57.5558 33.024 58.4624 32.7787 59.2518 32.288C60.0411 31.7973 60.6598 31.1253 61.1078 30.272C61.5771 29.3973 61.8118 28.416 61.8118 27.328C61.8118 26.24 61.5771 25.2693 61.1078 24.416C60.6598 23.5627 60.0411 22.8907 59.2518 22.4C58.4624 21.9093 57.5558 21.664 56.5318 21.664C55.5291 21.664 54.6224 21.9093 53.8118 22.4C53.0224 22.8907 52.3931 23.5627 51.9238 24.416C51.4758 25.2693 51.2518 26.24 51.2518 27.328C51.2518 28.416 51.4758 29.3973 51.9238 30.272C52.3931 31.1253 53.0224 31.7973 53.8118 32.288C54.6224 32.7787 55.5291 33.024 56.5318 33.024ZM71.9532 42.4V18.688H75.4092V22.272L74.9932 21.44C75.6332 20.4587 76.4866 19.6907 77.5532 19.136C78.6199 18.5813 79.8359 18.304 81.2012 18.304C82.8439 18.304 84.3159 18.6987 85.6172 19.488C86.9399 20.2773 87.9746 21.3547 88.7212 22.72C89.4892 24.0853 89.8732 25.6213 89.8732 27.328C89.8732 29.0347 89.4892 30.5707 88.7212 31.936C87.9746 33.3013 86.9506 34.3893 85.6492 35.2C84.3479 35.9893 82.8652 36.384 81.2012 36.384C79.8572 36.384 78.6306 36.1067 77.5212 35.552C76.4332 34.9973 75.5906 34.1973 74.9932 33.152L75.5692 32.48V42.4H71.9532ZM80.8492 33.024C81.8732 33.024 82.7799 32.7787 83.5692 32.288C84.3586 31.7973 84.9772 31.1253 85.4252 30.272C85.8946 29.3973 86.1292 28.416 86.1292 27.328C86.1292 26.24 85.8946 25.2693 85.4252 24.416C84.9772 23.5627 84.3586 22.8907 83.5692 22.4C82.7799 21.9093 81.8732 21.664 80.8492 21.664C79.8466 21.664 78.9399 21.9093 78.1292 22.4C77.3399 22.8907 76.7106 23.5627 76.2412 24.416C75.7932 25.2693 75.5692 26.24 75.5692 27.328C75.5692 28.416 75.7932 29.3973 76.2412 30.272C76.7106 31.1253 77.3399 31.7973 78.1292 32.288C78.9399 32.7787 79.8466 33.024 80.8492 33.024ZM96.2708 36V11.776H99.8868V36H96.2708ZM106.994 36V18.688H110.61V36H106.994ZM106.994 16.32V12.16H110.61V16.32H106.994ZM125.846 36.384C124.118 36.384 122.582 35.9893 121.238 35.2C119.916 34.3893 118.881 33.3013 118.134 31.936C117.388 30.5493 117.014 29.0027 117.014 27.296C117.014 25.5467 117.388 24 118.134 22.656C118.902 21.312 119.926 20.256 121.206 19.488C122.486 18.6987 123.937 18.304 125.558 18.304C126.86 18.304 128.022 18.528 129.046 18.976C130.07 19.424 130.934 20.0427 131.638 20.832C132.342 21.6 132.876 22.4853 133.238 23.488C133.622 24.4907 133.814 25.5573 133.814 26.688C133.814 26.9653 133.804 27.2533 133.782 27.552C133.761 27.8507 133.718 28.128 133.654 28.384H119.862V25.504H131.606L129.878 26.816C130.092 25.7707 130.017 24.8427 129.654 24.032C129.313 23.2 128.78 22.5493 128.054 22.08C127.35 21.5893 126.518 21.344 125.558 21.344C124.598 21.344 123.745 21.5893 122.998 22.08C122.252 22.5493 121.676 23.232 121.27 24.128C120.865 25.0027 120.705 26.0693 120.79 27.328C120.684 28.5013 120.844 29.5253 121.27 30.4C121.718 31.2747 122.337 31.9573 123.126 32.448C123.937 32.9387 124.854 33.184 125.878 33.184C126.924 33.184 127.809 32.9493 128.534 32.48C129.281 32.0107 129.868 31.4027 130.294 30.656L133.238 32.096C132.897 32.9067 132.364 33.6427 131.638 34.304C130.934 34.944 130.081 35.456 129.078 35.84C128.097 36.2027 127.02 36.384 125.846 36.384ZM140.223 36V18.688H143.679V22.176L143.359 21.664C143.743 20.5333 144.362 19.7227 145.215 19.232C146.069 18.72 147.093 18.464 148.287 18.464H149.343V21.76H147.839C146.645 21.76 145.674 22.1333 144.927 22.88C144.202 23.6053 143.839 24.6507 143.839 26.016V36H140.223Z" fill="#065F46"/>
<g clip-path="url(#clip0_129_237)">
<path d="M116.661 11.5926C116.617 11.5572 116.567 11.5283 116.514 11.5068C115.45 11.0681 114.639 10.8118 113.708 10.9825C113.007 11.1111 112.306 11.4404 111.35 11.9975C111.332 10.8681 111.012 9.66053 110.52 8.46932C109.838 6.81433 108.816 5.19029 107.7 3.89539C107.61 3.79167 107.489 3.72104 107.354 3.69495C107.22 3.66885 107.081 3.68873 106.959 3.75149C106.838 3.81425 106.741 3.91607 106.684 4.04068C106.628 4.16529 106.615 4.30526 106.648 4.4381C107.071 6.16723 107.378 7.7375 107.38 9.04486C107.381 10.0562 107.209 10.8847 106.803 11.5666C105.309 9.9008 103.48 8.92039 100.739 8.27138C100.602 8.23778 100.458 8.25283 100.331 8.31407C100.203 8.37531 100.101 8.47877 100.042 8.60691C99.9829 8.73504 99.97 8.87971 100.006 9.01628C100.041 9.15285 100.124 9.27271 100.238 9.3554C102.119 10.7349 103.917 12.2869 105.085 13.7282C105.669 14.4489 106.09 15.1413 106.301 15.7391C106.383 15.9698 106.435 16.181 106.457 16.3781C107.093 16.2087 107.767 16.1296 108.437 16.1301C109.621 16.1309 110.818 16.3826 111.794 16.9381C112.042 15.5077 112.439 14.7764 113.011 14.2654C113.712 13.6392 114.843 13.2821 116.504 12.6371C116.604 12.5983 116.692 12.5339 116.759 12.4502C116.826 12.3665 116.87 12.2667 116.886 12.1606C116.902 12.0546 116.889 11.9462 116.85 11.8464C116.811 11.7467 116.745 11.6591 116.661 11.5926Z" fill="#065F46"/>
</g>
<defs>
<clipPath id="clip0_129_237">
<rect width="34.6132" height="34.6132" fill="white" transform="translate(105.018) rotate(41.6836)"/>
</clipPath>
</defs>
</svg>
