<svg width="187" height="50" viewBox="0 0 187 50" fill="none" xmlns="http://www.w3.org/2000/svg">
<path d="M13.6388 41.48C11.7721 41.48 10.0388 41.1333 8.43875 40.44C6.83875 39.72 5.47875 38.7467 4.35875 37.52C3.23875 36.2933 2.41208 34.88 1.87875 33.28L5.87875 31.6C6.59875 33.44 7.65209 34.8533 9.03875 35.84C10.4254 36.8267 12.0254 37.32 13.8388 37.32C14.9054 37.32 15.8388 37.16 16.6388 36.84C17.4388 36.4933 18.0521 36.0133 18.4788 35.4C18.9321 34.7867 19.1588 34.08 19.1588 33.28C19.1588 32.1867 18.8521 31.32 18.2388 30.68C17.6254 30.04 16.7188 29.5333 15.5188 29.16L9.91875 27.4C7.67875 26.7067 5.97209 25.6533 4.79875 24.24C3.62542 22.8 3.03875 21.12 3.03875 19.2C3.03875 17.52 3.45209 16.0533 4.27875 14.8C5.10542 13.52 6.23875 12.52 7.67875 11.8C9.14542 11.08 10.8121 10.72 12.6788 10.72C14.4654 10.72 16.0921 11.04 17.5588 11.68C19.0254 12.2933 20.2788 13.1467 21.3188 14.24C22.3854 15.3333 23.1588 16.6 23.6388 18.04L19.7188 19.76C19.1321 18.1867 18.2121 16.9733 16.9588 16.12C15.7321 15.2667 14.3054 14.84 12.6788 14.84C11.6921 14.84 10.8254 15.0133 10.0788 15.36C9.33209 15.68 8.74542 16.16 8.31875 16.8C7.91875 17.4133 7.71875 18.1333 7.71875 18.96C7.71875 19.92 8.02542 20.7733 8.63875 21.52C9.25209 22.2667 10.1854 22.8267 11.4388 23.2L16.6388 24.84C19.0121 25.56 20.7988 26.6 21.9988 27.96C23.1988 29.2933 23.7988 30.96 23.7988 32.96C23.7988 34.6133 23.3588 36.08 22.4788 37.36C21.6254 38.64 20.4388 39.6533 18.9188 40.4C17.3988 41.12 15.6388 41.48 13.6388 41.48ZM39.9772 41.48C38.3505 41.48 36.9239 41.12 35.6972 40.4C34.4705 39.6533 33.5105 38.6267 32.8172 37.32C32.1505 35.9867 31.8172 34.4533 31.8172 32.72V19.36H36.3372V32.32C36.3372 33.3067 36.5372 34.1733 36.9372 34.92C37.3372 35.6667 37.8972 36.2533 38.6172 36.68C39.3372 37.08 40.1639 37.28 41.0972 37.28C42.0572 37.28 42.8972 37.0667 43.6172 36.64C44.3372 36.2133 44.8972 35.6133 45.2972 34.84C45.7239 34.0667 45.9372 33.16 45.9372 32.12V19.36H50.4172V41H46.1372V36.76L46.6172 37.32C46.1105 38.6533 45.2705 39.68 44.0972 40.4C42.9239 41.12 41.5505 41.48 39.9772 41.48ZM59.2947 49V19.36H63.6147V23.84L63.0947 22.8C63.8947 21.5733 64.9614 20.6133 66.2947 19.92C67.628 19.2267 69.148 18.88 70.8547 18.88C72.908 18.88 74.748 19.3733 76.3747 20.36C78.028 21.3467 79.3214 22.6933 80.2547 24.4C81.2147 26.1067 81.6947 28.0267 81.6947 30.16C81.6947 32.2933 81.2147 34.2133 80.2547 35.92C79.3214 37.6267 78.0414 38.9867 76.4147 40C74.788 40.9867 72.9347 41.48 70.8547 41.48C69.1747 41.48 67.6414 41.1333 66.2547 40.44C64.8947 39.7467 63.8414 38.7467 63.0947 37.44L63.8147 36.6V49H59.2947ZM70.4147 37.28C71.6947 37.28 72.828 36.9733 73.8147 36.36C74.8014 35.7467 75.5747 34.9067 76.1347 33.84C76.7214 32.7467 77.0147 31.52 77.0147 30.16C77.0147 28.8 76.7214 27.5867 76.1347 26.52C75.5747 25.4533 74.8014 24.6133 73.8147 24C72.828 23.3867 71.6947 23.08 70.4147 23.08C69.1614 23.08 68.028 23.3867 67.0147 24C66.028 24.6133 65.2414 25.4533 64.6547 26.52C64.0947 27.5867 63.8147 28.8 63.8147 30.16C63.8147 31.52 64.0947 32.7467 64.6547 33.84C65.2414 34.9067 66.028 35.7467 67.0147 36.36C68.028 36.9733 69.1614 37.28 70.4147 37.28ZM89.6916 49V19.36H94.0116V23.84L93.4916 22.8C94.2916 21.5733 95.3582 20.6133 96.6916 19.92C98.0249 19.2267 99.5449 18.88 101.252 18.88C103.305 18.88 105.145 19.3733 106.772 20.36C108.425 21.3467 109.718 22.6933 110.652 24.4C111.612 26.1067 112.092 28.0267 112.092 30.16C112.092 32.2933 111.612 34.2133 110.652 35.92C109.718 37.6267 108.438 38.9867 106.812 40C105.185 40.9867 103.332 41.48 101.252 41.48C99.5716 41.48 98.0382 41.1333 96.6516 40.44C95.2916 39.7467 94.2382 38.7467 93.4916 37.44L94.2116 36.6V49H89.6916ZM100.812 37.28C102.092 37.28 103.225 36.9733 104.212 36.36C105.198 35.7467 105.972 34.9067 106.532 33.84C107.118 32.7467 107.412 31.52 107.412 30.16C107.412 28.8 107.118 27.5867 106.532 26.52C105.972 25.4533 105.198 24.6133 104.212 24C103.225 23.3867 102.092 23.08 100.812 23.08C99.5582 23.08 98.4249 23.3867 97.4116 24C96.4249 24.6133 95.6382 25.4533 95.0516 26.52C94.4916 27.5867 94.2116 28.8 94.2116 30.16C94.2116 31.52 94.4916 32.7467 95.0516 33.84C95.6382 34.9067 96.4249 35.7467 97.4116 36.36C98.4249 36.9733 99.5582 37.28 100.812 37.28ZM120.088 41V10.72H124.608V41H120.088ZM133.493 41V19.36H138.013V41H133.493ZM133.493 16.4V11.2H138.013V16.4H133.493ZM157.058 41.48C154.898 41.48 152.978 40.9867 151.298 40C149.644 38.9867 148.351 37.6267 147.418 35.92C146.484 34.1867 146.018 32.2533 146.018 30.12C146.018 27.9333 146.484 26 147.418 24.32C148.378 22.64 149.658 21.32 151.258 20.36C152.858 19.3733 154.671 18.88 156.698 18.88C158.324 18.88 159.778 19.16 161.058 19.72C162.338 20.28 163.418 21.0533 164.298 22.04C165.178 23 165.844 24.1067 166.298 25.36C166.778 26.6133 167.018 27.9467 167.018 29.36C167.018 29.7067 167.004 30.0667 166.978 30.44C166.951 30.8133 166.898 31.16 166.818 31.48H149.578V27.88H164.258L162.098 29.52C162.364 28.2133 162.271 27.0533 161.818 26.04C161.391 25 160.724 24.1867 159.818 23.6C158.938 22.9867 157.898 22.68 156.698 22.68C155.498 22.68 154.431 22.9867 153.498 23.6C152.564 24.1867 151.844 25.04 151.338 26.16C150.831 27.2533 150.631 28.5867 150.738 30.16C150.604 31.6267 150.804 32.9067 151.338 34C151.898 35.0933 152.671 35.9467 153.658 36.56C154.671 37.1733 155.818 37.48 157.098 37.48C158.404 37.48 159.511 37.1867 160.418 36.6C161.351 36.0133 162.084 35.2533 162.618 34.32L166.298 36.12C165.871 37.1333 165.204 38.0533 164.298 38.88C163.418 39.68 162.351 40.32 161.098 40.8C159.871 41.2533 158.524 41.48 157.058 41.48ZM175.029 41V19.36H179.349V23.72L178.949 23.08C179.429 21.6667 180.202 20.6533 181.269 20.04C182.336 19.4 183.616 19.08 185.109 19.08H186.429V23.2H184.549C183.056 23.2 181.842 23.6667 180.909 24.6C180.002 25.5067 179.549 26.8133 179.549 28.52V41H175.029Z" fill="#FAFAF8"/>
<g clip-path="url(#clip0_595_158)">
<path d="M63.6614 12.159C63.6166 12.1236 63.567 12.0947 63.5142 12.0732C62.4496 11.6345 61.6392 11.3782 60.7083 11.5489C60.0074 11.6775 59.3063 12.0068 58.3504 12.5639C58.332 11.4345 58.0115 10.2269 57.5205 9.03573C56.8382 7.38074 55.8162 5.7567 54.6996 4.46179C54.6104 4.35807 54.4888 4.28745 54.3545 4.26135C54.2202 4.23526 54.081 4.25514 53.9594 4.3179C53.8378 4.38066 53.7409 4.48248 53.6843 4.60709C53.6278 4.7317 53.6149 4.87166 53.6477 5.00451C54.0709 6.73364 54.3781 8.3039 54.38 9.61127C54.3814 10.6226 54.2091 11.4511 53.8034 12.133C52.3094 10.4672 50.4795 9.4868 47.7393 8.83779C47.6022 8.80419 47.4577 8.81924 47.3305 8.88048C47.2033 8.94172 47.1014 9.04518 47.0421 9.17331C46.9829 9.30145 46.97 9.44612 47.0057 9.58269C47.0414 9.71925 47.1235 9.83912 47.2379 9.92181C49.1191 11.3013 50.9173 12.8533 52.0851 14.2946C52.6691 15.0153 53.0905 15.7078 53.3015 16.3055C53.3828 16.5362 53.4348 16.7474 53.4567 16.9445C54.0931 16.7751 54.7671 16.696 55.437 16.6965C56.6212 16.6973 57.8185 16.949 58.7937 17.5045C59.0422 16.0741 59.4388 15.3428 60.0111 14.8318C60.7124 14.2056 61.8432 13.8485 63.5036 13.2035C63.6036 13.1647 63.6916 13.1003 63.7587 13.0166C63.8258 12.933 63.8695 12.8331 63.8856 12.727C63.9016 12.621 63.8893 12.5126 63.85 12.4128C63.8106 12.3131 63.7455 12.2255 63.6614 12.159Z" fill="#FAFAF8"/>
</g>
<defs>
<clipPath id="clip0_595_158">
<rect width="34.6132" height="34.6132" fill="white" transform="translate(52.0183 0.566406) rotate(41.6836)"/>
</clipPath>
</defs>
</svg>
