<svg width="50" height="50" viewBox="0 0 50 50" fill="none" xmlns="http://www.w3.org/2000/svg">
<path opacity="0.4" d="M24.9998 45.8541C36.5057 45.8541 45.8332 36.5269 45.8332 25.0208C45.8332 13.5149 36.5057 4.1875 24.9998 4.1875C13.4939 4.1875 4.1665 13.5149 4.1665 25.0208C4.1665 36.5269 13.4939 45.8541 24.9998 45.8541Z" fill="#7D807E"/>
<path d="M25 14.458C20.6875 14.458 17.1875 17.958 17.1875 22.2704C17.1875 26.4996 20.5 29.9371 24.8958 30.0621C24.9583 30.0621 25.0417 30.0621 25.0833 30.0621C25.125 30.0621 25.1875 30.0621 25.2292 30.0621C25.25 30.0621 25.2708 30.0621 25.2708 30.0621C29.4792 29.9163 32.7917 26.4996 32.8125 22.2704C32.8125 17.958 29.3125 14.458 25 14.458Z" fill="#7D807E"/>
<path d="M39.1265 40.3333C35.4181 43.75 30.4598 45.8542 25.0015 45.8542C19.5431 45.8542 14.5848 43.75 10.8765 40.3333C11.3765 38.4375 12.7306 36.7083 14.7098 35.375C20.3973 31.5833 29.6473 31.5833 35.2931 35.375C37.2931 36.7083 38.6265 38.4375 39.1265 40.3333Z" fill="#7D807E"/>
</svg>
